<?xml version="1.0" encoding="utf-8"?>
<!-- Generator: Adobe Illustrator 26.2.1, SVG Export Plug-In . SVG Version: 6.00 Build 0)  -->
<svg version="1.1" id="圖層_1" xmlns="http://www.w3.org/2000/svg" xmlns:xlink="http://www.w3.org/1999/xlink" x="0px" y="0px"
	 width="500px" height="300px" viewBox="0 0 500 300" style="enable-background:new 0 0 500 300;" xml:space="preserve">
<style type="text/css">
	.st0{fill:#191919;}
	.st1{fill:#CCAC80;}
</style>
<g>
	<path class="st0" d="M139.578,100.516v66.089c0,8.194-2.48,14.662-7.439,19.406c-4.959,4.744-11.482,7.116-19.622,7.116
		c-8.086,0-14.609-2.372-19.622-7.116c-4.959-4.744-7.439-11.212-7.439-19.406h15.202c0.108,4.043,1.132,7.277,3.127,9.649
		c1.995,2.372,4.905,3.558,8.787,3.558c3.881,0,6.792-1.186,8.841-3.612c2.048-2.426,3.019-5.606,3.019-9.541v-66.143H139.578z"/>
	<path class="st0" d="M165.237,122.024c4.151-7.116,9.865-12.668,17.034-16.711c7.17-3.989,15.04-5.984,23.557-5.984
		c9.757,0,18.436,2.372,26.037,7.17c7.601,4.798,13.153,11.59,16.549,20.377h-18.059c-2.372-4.852-5.66-8.463-9.919-10.835
		c-4.205-2.372-9.11-3.558-14.662-3.558c-6.091,0-11.482,1.348-16.226,4.097c-4.744,2.749-8.463,6.63-11.159,11.752
		c-2.695,5.121-4.043,11.051-4.043,17.789c0,6.792,1.348,12.722,4.043,17.789c2.695,5.121,6.415,9.056,11.159,11.805
		c4.744,2.749,10.134,4.151,16.226,4.151c5.552,0,10.404-1.186,14.662-3.558c4.205-2.372,7.547-5.984,9.919-10.835h18.059
		c-3.45,8.787-8.948,15.579-16.549,20.323c-7.601,4.744-16.28,7.116-26.037,7.116c-8.625,0-16.495-1.995-23.611-5.984
		s-12.776-9.541-16.98-16.711c-4.205-7.116-6.253-15.202-6.253-24.15C158.984,137.172,161.032,129.14,165.237,122.024z"/>
</g>
<g>
	<path class="st0" d="M218.519,220.689v5.162h-10.256v33.371h-6.316v-33.371h-10.301v-5.162H218.519z"/>
	<path class="st0" d="M244.916,259.199l-8.875-15.417h-4.822v15.417h-6.316v-38.51h13.312c2.966,0,5.456,0.521,7.516,1.562
		c2.06,1.041,3.577,2.422,4.596,4.166c1.019,1.743,1.517,3.668,1.517,5.818c0,2.513-0.724,4.8-2.196,6.837
		c-1.449,2.06-3.713,3.441-6.724,4.188l9.531,15.961h-7.539V259.199z M231.219,238.756h6.973c2.355,0,4.143-0.589,5.343-1.766
		c1.2-1.177,1.811-2.762,1.811-4.777c0-1.992-0.589-3.554-1.766-4.686c-1.177-1.132-2.966-1.698-5.366-1.698h-6.973v12.927H231.219z
		"/>
	<path class="st0" d="M283.154,251.343h-16.119l-2.762,7.879h-6.588l13.81-38.578h7.313l13.81,38.578h-6.656L283.154,251.343z
		 M281.366,246.181l-6.271-17.908l-6.316,17.908H281.366z"/>
	<path class="st0" d="M304.82,220.689v24.541c0,2.92,0.77,5.117,2.309,6.588c1.539,1.472,3.668,2.219,6.407,2.219
		c2.762,0,4.913-0.747,6.452-2.219c1.539-1.472,2.309-3.668,2.309-6.588v-24.541h6.316v24.451c0,3.147-0.679,5.796-2.06,7.992
		c-1.358,2.173-3.192,3.803-5.479,4.868c-2.287,1.064-4.822,1.607-7.584,1.607c-2.762,0-5.298-0.543-7.562-1.607
		c-2.264-1.064-4.075-2.694-5.411-4.868c-1.336-2.173-1.992-4.845-1.992-7.992v-24.451H304.82z"/>
	<path class="st0" d="M356.801,259.199l-8.875-15.417h-4.822v15.417h-6.316v-38.51h13.312c2.966,0,5.456,0.521,7.516,1.562
		c2.06,1.041,3.577,2.422,4.596,4.166c1.019,1.743,1.517,3.668,1.517,5.818c0,2.513-0.724,4.8-2.196,6.837
		c-1.449,2.06-3.713,3.441-6.724,4.188l9.531,15.961h-7.539V259.199z M343.104,238.756h6.973c2.355,0,4.143-0.589,5.343-1.766
		c1.2-1.177,1.811-2.762,1.811-4.777c0-1.992-0.589-3.554-1.766-4.686c-1.177-1.132-2.966-1.698-5.366-1.698h-6.973v12.927H343.104z
		"/>
	<path class="st0" d="M378.15,220.689v38.51h-6.316v-38.51H378.15z"/>
	<path class="st0" d="M418.108,259.199h-6.316l-19.017-28.775v28.775h-6.316v-38.578h6.316l19.017,28.707v-28.707h6.316V259.199z"/>
	<path class="st0" d="M454.286,231.783c-0.996-1.924-2.377-3.373-4.166-4.347c-1.766-0.973-3.826-1.472-6.158-1.472
		c-2.558,0-4.822,0.566-6.814,1.721c-1.992,1.155-3.554,2.762-4.686,4.867c-1.132,2.105-1.698,4.551-1.698,7.313
		c0,2.762,0.566,5.23,1.698,7.335c1.132,2.128,2.694,3.758,4.686,4.913c1.992,1.155,4.256,1.721,6.814,1.721
		c3.441,0,6.226-0.951,8.377-2.875c2.151-1.924,3.464-4.528,3.939-7.811h-14.467v-5.049h21.236v4.935
		c-0.408,2.988-1.472,5.75-3.192,8.263c-1.721,2.513-3.962,4.528-6.701,6.022c-2.762,1.494-5.818,2.241-9.169,2.241
		c-3.622,0-6.928-0.838-9.916-2.513c-2.988-1.675-5.366-4.007-7.131-7.018c-1.766-2.988-2.626-6.384-2.626-10.142
		c0-3.758,0.883-7.154,2.626-10.142c1.743-2.988,4.143-5.32,7.154-7.018c3.011-1.675,6.316-2.513,9.893-2.513
		c4.098,0,7.743,0.996,10.935,3.011c3.192,2.015,5.524,4.867,6.95,8.558H454.286z"/>
	<path class="st0" d="M475.567,225.783v11.297h13.312v5.162h-13.312v11.795h14.965v5.162h-21.281v-38.578h21.281v5.162H475.567z"/>
</g>
<path class="st1" d="M217.455,194.768"/>
<path d="M63.786,39.602c10.242-4.312,21.401-6.523,32.721-6.469c31.427,0.162,57.14,16.98,61.776,23.395
	c4.69-6.469,30.403-23.234,61.776-23.395c11.32-0.054,22.479,2.156,32.721,6.469c49.055,20.43,60.644,61.345,57.033,86.843
	c-4.42,31.697-20.808,55.955-41.562,75.846c12.884-18.867,21.293-39.891,24.743-61.776c3.18-21.185-6.738-55.415-47.653-72.504
	c-37.249-15.525-81.937,7.116-87.22,14.231c-16.819-18.975-46.09-24.851-70.401-14.231c-40.915,17.088-50.564,51.319-47.599,72.504
	c11.212,80.374,129.968,86.465,118.162,152.824C144.914,250.752,20.176,222.775,6.699,126.445c-0.377-2.965-0.593-5.93-0.593-8.895
	C6.16,92.214,20.122,57.768,63.786,39.602"/>
</svg>
